<svg width="81" height="49" viewBox="0 0 81 49" fill="none" xmlns="http://www.w3.org/2000/svg">
<path fill-rule="evenodd" clip-rule="evenodd" d="M19.1879 48.8594L36.6254 27.6719C37.8442 26.1719 38.5942 24.6719 42.4379 24.6719C47.7817 24.6719 54.7192 23.4531 60.5317 22.1406C68.5942 20.3594 75.3442 16.9844 80.6879 14.3594C79.1879 17.2656 68.9692 20.2656 63.8129 22.9844C68.3129 21.8594 69.1567 21.5781 73.5629 20.0781C70.2817 23.0781 66.4379 22.7969 61.0942 25.4219C65.0317 24.5781 65.2192 24.5781 69.0629 23.3594C66.7192 25.8906 62.2192 25.5156 58.7504 27.4844C62.3129 26.9219 62.0317 27.1094 65.3129 26.1719C62.9692 27.6719 59.0317 30.1094 51.7192 33.1094L37.8442 36.2969C36.8129 36.4844 34.2817 36.7656 32.1254 38.8281C29.4067 41.5469 25.6567 44.7344 24.5317 45.4844C23.2192 46.5156 21.7192 48.2969 19.1879 48.8594ZM18.0629 48.0156L33.9067 27.5781C35.1254 25.9844 35.4067 23.9219 32.3129 22.7969C28.0942 21.2031 23.5004 20.8281 19.3754 19.1406C10.8442 15.8594 5.87542 7.98438 0.812916 0.390625C-0.874584 3.67188 5.50042 7.79688 7.00042 12.0156C4.56292 9.57812 2.31292 7.04688 0.344166 4.23438C0.062916 8.07812 5.68792 10.5156 7.37542 14.7344C5.03167 12.6719 2.78167 10.6094 0.906666 8.35938C0.250416 11.5469 6.90667 14.5469 7.75042 17.4531C5.50042 15.9531 3.34417 14.2656 1.75042 12.3906C2.12542 14.5469 4.37542 17.5469 8.96917 21.2031C13.3754 25.3281 20.5942 30.4844 20.7817 37.5156C20.7817 39.6719 19.8442 41.3594 18.8129 43.2344C18.1567 44.4531 17.6879 46.1406 18.0629 48.0156Z" fill="#949599"/>
</svg>
