<svg width="128" height="40" viewBox="0 0 128 40" fill="none" xmlns="http://www.w3.org/2000/svg">
<path d="M63.936 11.152L58.104 22.432V28H54V22.432L48.168 11.152H52.824L56.088 18.208L59.328 11.152H63.936ZM73.5576 28.168C71.9736 28.168 70.5176 27.8 69.1896 27.064C67.8776 26.328 66.8296 25.304 66.0456 23.992C65.2776 22.664 64.8936 21.176 64.8936 19.528C64.8936 17.88 65.2776 16.4 66.0456 15.088C66.8296 13.776 67.8776 12.752 69.1896 12.016C70.5176 11.28 71.9736 10.912 73.5576 10.912C75.1416 10.912 76.5896 11.28 77.9016 12.016C79.2296 12.752 80.2696 13.776 81.0216 15.088C81.7896 16.4 82.1736 17.88 82.1736 19.528C82.1736 21.176 81.7896 22.664 81.0216 23.992C80.2536 25.304 79.2136 26.328 77.9016 27.064C76.5896 27.8 75.1416 28.168 73.5576 28.168ZM73.5576 24.424C74.9016 24.424 75.9736 23.976 76.7736 23.08C77.5896 22.184 77.9976 21 77.9976 19.528C77.9976 18.04 77.5896 16.856 76.7736 15.976C75.9736 15.08 74.9016 14.632 73.5576 14.632C72.1976 14.632 71.1096 15.072 70.2936 15.952C69.4936 16.832 69.0936 18.024 69.0936 19.528C69.0936 21.016 69.4936 22.208 70.2936 23.104C71.1096 23.984 72.1976 24.424 73.5576 24.424ZM93.0488 28L89.5448 21.64H88.5608V28H84.4568V11.152H91.3448C92.6728 11.152 93.8008 11.384 94.7288 11.848C95.6728 12.312 96.3768 12.952 96.8408 13.768C97.3048 14.568 97.5368 15.464 97.5368 16.456C97.5368 17.576 97.2168 18.576 96.5768 19.456C95.9528 20.336 95.0248 20.96 93.7928 21.328L97.6808 28H93.0488ZM88.5608 18.736H91.1048C91.8568 18.736 92.4168 18.552 92.7848 18.184C93.1688 17.816 93.3608 17.296 93.3608 16.624C93.3608 15.984 93.1688 15.48 92.7848 15.112C92.4168 14.744 91.8568 14.56 91.1048 14.56H88.5608V18.736ZM111.081 11.152V14.44H104.217V17.992H109.353V21.184H104.217V28H100.113V11.152H111.081ZM127.686 11.152L121.854 22.432V28H117.75V22.432L111.918 11.152H116.574L119.838 18.208L123.078 11.152H127.686Z" fill="white"/>
<circle cx="20" cy="20" r="20" fill="url(#paint0_linear_523_2467)"/>
<path d="M29.3497 14.5904C28.4827 13.7201 27.0769 13.7201 26.2098 14.5904L20.8928 19.9269L18.1498 9.65218C17.8324 8.46342 16.615 7.75796 15.4306 8.07648C14.2461 8.39501 13.5433 9.61691 13.8606 10.8057L17.2672 23.5658L13.6503 27.1959C12.7832 28.0662 12.7832 29.4771 13.6503 30.3473C14.5173 31.2176 15.9231 31.2176 16.7902 30.3473L29.3497 17.7418C30.2168 16.8715 30.2168 15.4606 29.3497 14.5904Z" fill="url(#paint1_linear_523_2467)"/>
<defs>
<linearGradient id="paint0_linear_523_2467" x1="20" y1="0" x2="20" y2="40" gradientUnits="userSpaceOnUse">
<stop stop-color="#1E50FF"/>
<stop offset="1" stop-color="#5699FF"/>
</linearGradient>
<linearGradient id="paint1_linear_523_2467" x1="21.5" y1="8" x2="21.5" y2="31" gradientUnits="userSpaceOnUse">
<stop stop-color="white"/>
<stop offset="1" stop-color="white" stop-opacity="0"/>
</linearGradient>
</defs>
</svg>
