<svg xmlns="http://www.w3.org/2000/svg" viewBox="0 0 64 64" width="64" height="64">
  <!-- Gradient definitions matching theme with green accents -->
  <defs>
    <linearGradient id="grad1" x1="0%" y1="0%" x2="100%" y2="100%">
      <stop offset="0%" style="stop-color:#6366f1;stop-opacity:1" />
      <stop offset="50%" style="stop-color:#5b6fd9;stop-opacity:1" />
      <stop offset="100%" style="stop-color:#10b981;stop-opacity:1" />
    </linearGradient>
    <linearGradient id="grad2" x1="0%" y1="0%" x2="100%" y2="100%">
      <stop offset="0%" style="stop-color:#10b981;stop-opacity:1" />
      <stop offset="100%" style="stop-color:#22c55e;stop-opacity:1" />
    </linearGradient>
    <radialGradient id="glow" cx="50%" cy="50%" r="50%">
      <stop offset="0%" style="stop-color:#10b981;stop-opacity:0.4" />
      <stop offset="100%" style="stop-color:#10b981;stop-opacity:0" />
    </radialGradient>
  </defs>
  
  <!-- Green glow effect -->
  <circle cx="32" cy="32" r="30" fill="url(#glow)"/>
  
  <!-- Background circle with indigo to green gradient -->
  <circle cx="32" cy="32" r="30" fill="#1e293b"/>
  <circle cx="32" cy="32" r="28" fill="url(#grad1)"/>
  
  <!-- NFT Frame with green tint -->
  <rect x="14" y="14" width="20" height="20" rx="2" fill="none" stroke="#f1f5f9" stroke-width="2.5"/>
  <circle cx="19" cy="20" r="2" fill="#10b981"/>
  <path d="M 14 30 L 19 24 L 24 27 L 34 19" stroke="#10b981" stroke-width="2.5" fill="none" stroke-linecap="round"/>
  
  <!-- DeFi Swap Symbol with green gradient -->
  <g transform="translate(39, 39)">
    <!-- Top arrow -->
    <path d="M -8 -8 A 8 8 0 0 1 0 -12 L 0 -8 L 3 -11 Z" fill="url(#grad2)" stroke="#f1f5f9" stroke-width="1"/>
    <!-- Bottom arrow -->
    <path d="M 8 8 A 8 8 0 0 1 0 12 L 0 8 L -3 11 Z" fill="url(#grad2)" stroke="#f1f5f9" stroke-width="1"/>
    <!-- Side connecting curves with green -->
    <path d="M -8 -5 A 10 10 0 0 0 -10 0 A 10 10 0 0 0 -8 5" stroke="#10b981" stroke-width="2.5" fill="none"/>
    <path d="M 8 -5 A 10 10 0 0 1 10 0 A 10 10 0 0 1 8 5" stroke="#10b981" stroke-width="2.5" fill="none"/>
  </g>
  
  <!-- Enhanced green accent dots -->
  <circle cx="48" cy="16" r="2.5" fill="#10b981" opacity="1"/>
  <circle cx="52" cy="22" r="2" fill="#22c55e" opacity="0.9"/>
  <circle cx="16" cy="48" r="2.5" fill="#22c55e" opacity="1"/>
  <circle cx="12" cy="52" r="2" fill="#10b981" opacity="0.9"/>
  <circle cx="44" cy="10" r="1.5" fill="#34d399" opacity="0.8"/>
  <circle cx="20" cy="54" r="1.5" fill="#34d399" opacity="0.8"/>
</svg>
