<svg width="102" height="36" viewBox="0 0 102 36" fill="none" xmlns="http://www.w3.org/2000/svg">
<path fill-rule="evenodd" clip-rule="evenodd" d="M0.3125 35.2031H6.125L10.7188 25.5469H21.9688L23.8438 35.2031H33.2188L24.6875 0.703125H18.5938L0.3125 35.2031ZM12.3125 22.2656L18.5 10.4531L21.2188 22.2656H12.3125ZM41.75 10.4531H49.625L49.0625 15.7969C51.4062 11.6719 53.8438 9.79688 56.4688 10.4531L55.4375 18.3281C51.875 16.8281 49.4375 17.9531 48.4062 21.7969L46.9062 35.2031H38.5625L41.75 10.4531ZM62.6562 10.4531H70.25L66.6875 35.2031H59.0938L62.6562 10.4531ZM78.875 2.95312H86.1875L83.6562 21.0469H85.5312L94.625 10.4531H101.938L91.8125 21.0469L98.9375 35.2031H89.1875L85.0625 24.4219H83.0938L81.5938 35.2031H74.1875L78.875 2.95312Z" fill="#0D3F84"/>
</svg>
