<svg width="20" height="20" viewBox="0 0 20 20" fill="none" xmlns="http://www.w3.org/2000/svg">
<path d="M17.9414 13.2751C17.8081 13.0501 17.4331 12.7001 16.4998 12.8667C15.9831 12.9584 15.4581 13.0001 14.9331 12.9751C12.9914 12.8917 11.2331 12.0001 10.0081 10.6251C8.92476 9.41672 8.25809 7.84172 8.24976 6.14172C8.24976 5.19172 8.43309 4.27506 8.80809 3.40839C9.17476 2.56672 8.91642 2.12506 8.73309 1.94172C8.54142 1.75006 8.09142 1.48339 7.20809 1.85006C3.79976 3.28339 1.69142 6.70006 1.94142 10.3584C2.19142 13.8001 4.60809 16.7417 7.80809 17.8501C8.57476 18.1167 9.38309 18.2751 10.2164 18.3084C10.3498 18.3167 10.4831 18.3251 10.6164 18.3251C13.4081 18.3251 16.0248 17.0084 17.6748 14.7667C18.2331 13.9917 18.0831 13.5001 17.9414 13.2751Z" fill="#051724"/>
</svg>
